<svg xmlns="http://www.w3.org/2000/svg" viewBox="0 0 17 17" height="17" width="17"><title>arrow.svg</title><rect fill="none" x="0" y="0" width="17" height="17"></rect><path fill="#444444" d="M 7.672 1.75 L 4.197 5.992 C 3.82 6.454 3.994 7.243 4.51 7.411 C 4.748 7.492 5.007 7.408 5.18 7.193 L 7.468 4.398 L 7.468 14.231 C 7.468 14.883 8.049 15.291 8.512 14.965 C 8.728 14.815 8.859 14.533 8.859 14.231 L 8.859 4.398 L 11.149 7.193 C 11.527 7.653 12.174 7.443 12.311 6.813 C 12.374 6.521 12.306 6.208 12.132 5.992 L 8.658 1.75 C 8.383 1.417 7.943 1.417 7.672 1.75" style="" transform="matrix(0, 1, -1, 0, 16.454114, 0.125799)"></path></svg>