<svg xmlns="http://www.w3.org/2000/svg" viewBox="0 0 17 17" height="17" width="17">
	<title>bus-11.svg</title>
	<rect fill="none" x="0" y="0" width="17" height="17"></rect>


    <rect x="3.367" y="1.572" width="10.542" height="13.888" rx="1" ry="1" style="fill: rgb(0, 170, 220);"></rect>
    <path d="M 6.405 3.193 C 5.545 3.193 4.684 3.688 4.684 5.059 L 4.684 8.79 L 4.684 12.055 C 4.684 12.055 4.684 12.522 5.114 12.522 L 5.545 12.536 L 5.545 12.988 C 5.545 12.988 5.545 13.454 5.975 13.454 L 6.405 13.454 C 6.405 13.454 6.835 13.454 6.835 12.988 L 6.835 12.536 L 10.277 12.522 L 10.277 12.988 C 10.277 12.988 10.277 13.454 10.708 13.454 L 11.138 13.454 C 11.568 13.454 11.568 12.988 11.568 12.988 L 11.568 12.536 L 11.998 12.522 C 11.998 12.522 12.429 12.522 12.429 12.055 L 12.429 8.79 L 12.429 5.059 C 12.429 3.659 11.568 3.193 10.708 3.193 L 6.405 3.193 Z M 7.05 4.126 L 10.062 4.126 C 10.181 4.126 10.277 4.229 10.277 4.359 C 10.277 4.488 10.181 4.592 10.062 4.592 L 7.05 4.592 C 6.931 4.592 6.835 4.488 6.835 4.359 C 6.835 4.229 6.931 4.126 7.05 4.126 Z M 6.405 5.059 L 10.708 5.059 C 11.568 5.059 11.568 5.992 11.568 5.992 L 11.568 7.857 C 11.568 7.857 11.568 8.79 10.708 8.79 L 6.405 8.79 C 5.545 8.79 5.545 7.857 5.545 7.857 L 5.545 5.992 C 5.545 5.992 5.545 5.059 6.405 5.059 Z M 6.19 10.189 C 6.546 10.189 6.835 10.502 6.835 10.889 C 6.835 11.275 6.546 11.589 6.19 11.589 C 5.834 11.589 5.545 11.275 5.545 10.889 C 5.545 10.502 5.834 10.189 6.19 10.189 Z M 10.923 10.189 C 11.279 10.189 11.568 10.502 11.568 10.889 C 11.568 11.275 11.279 11.589 10.923 11.589 C 10.566 11.589 10.277 11.275 10.277 10.889 C 10.277 10.502 10.566 10.189 10.923 10.189 Z" style="fill: rgb(255, 255, 255);"></path>
</svg>
