<svg xmlns="http://www.w3.org/2000/svg" viewBox="0 0 17 17" height="17" width="17">
	<title>logo_-Eleven.svg</title>
	<rect fill="none" x="0" y="0" width="17" height="17"></rect>

  <g>
    <polygon class="fil0" points="2.78 3.019 14.171 3.019 14.171 14.05 2.78 14.05" id="polygon10" style="fill:#ffffff;fill-rule:nonzero"></polygon>
    <polygon class="fil1" points="2.722 2.934 14.219 2.934 14.219 14.106 2.722 14.106" id="polygon12" style="fill:#008061;fill-rule:nonzero"></polygon>
    <path class="fil0" d="M 9.811 13.371 L 9.811 13.818 L 7.053 13.818 L 7.053 13.37 L 4.966 13.37 C 4.762 13.37 4.596 13.157 4.596 12.894 L 3.723 4.063 C 3.723 3.8 3.927 3.587 4.179 3.587 L 12.611 3.587 C 12.861 3.587 13.065 3.8 13.065 4.063 L 12.201 12.894 C 12.201 13.157 12.035 13.37 11.831 13.37 L 9.811 13.371 Z" id="path-1" style="fill:#ffffff;fill-rule:nonzero"></path>
    <path class="fil2" d="M 5.259 4.88 L 10.904 4.88 C 10.348 5.088 8.656 6.234 8.234 7.004 L 5.264 7.004 L 5.259 4.88 Z" id="path16" style="fill:#f5821f;fill-rule:nonzero"></path>
    <path class="fil3" d="M 9.758 10.967 C 9.677 11.736 9.674 12.673 9.674 13.657 L 7.227 13.657 C 7.227 12.673 7.268 11.736 7.349 10.967 L 9.758 10.967 Z" id="path-2" style="fill:#ed1b2d;fill-rule:nonzero"></path>
    <polygon class="fil1" points="5.973 9.855 5.973 10.153 5.581 10.153 5.581 10.451 5.973 10.451 5.973 10.793 5.078 10.793 5.078 9.203 5.973 9.203 5.973 9.557 5.581 9.557 5.581 9.855" id="polygon20" style="fill:#008061;fill-rule:nonzero"></polygon>
    <polygon class="fil1" points="8.053 9.855 8.053 10.153 7.663 10.153 7.663 10.451 8.053 10.451 8.053 10.793 7.16 10.793 7.16 9.203 8.053 9.203 8.053 9.557 7.663 9.557 7.663 9.855" id="polygon22" style="fill:#008061;fill-rule:nonzero"></polygon>
    <polygon class="fil1" points="10.345 9.855 10.345 10.153 9.954 10.153 9.954 10.451 10.345 10.451 10.345 10.793 9.45 10.793 9.45 9.203 10.345 9.203 10.345 9.557 9.954 9.557 9.954 9.855" id="polygon24" style="fill:#008061;fill-rule:nonzero"></polygon>
    <polygon class="fil1" points="6.644 9.203 6.644 10.451 7.035 10.451 7.035 10.793 6.14 10.793 6.14 9.203" id="polygon26" style="fill:#008061;fill-rule:nonzero"></polygon>
    <polygon class="fil1" points="8.775 10.278 8.584 9.203 8.145 9.203 8.395 10.793 9.041 10.793 9.344 9.203 8.97 9.203" id="polygon28" style="fill:#008061;fill-rule:nonzero"></polygon>
    <polygon class="fil1" points="10.557 9.203 11.041 9.203 11.041 10.793 10.557 10.793" id="polygon30" style="fill:#008061;fill-rule:nonzero"></polygon>
    <path class="fil1" d="M 11.04 9.675 C 11.067 9.501 11.313 9.548 11.313 9.647 L 11.313 10.793 L 11.799 10.793 L 11.799 9.445 C 11.799 9.159 11.396 9.045 11.044 9.296 L 11.04 9.675 Z" id="path32" style="fill:#008061;fill-rule:nonzero"></path>
    <path class="fil3" d="M 9.985 8.979 C 10.034 8.371 10.868 7.377 11.675 7.116 L 11.675 4.768 C 9.454 5.762 8.01 7.265 7.698 8.973 L 9.985 8.979 Z" id="path34" style="fill:#ed1b2d;fill-rule:nonzero"></path>
  </g>

</svg>