<svg xmlns="http://www.w3.org/2000/svg" viewBox="0 0 17 17" height="17" width="17">
	<title>ok_logo.svg</title>
	<rect fill="none" x="0" y="0" width="17" height="17"></rect>

<g>
  <rect x="2.866" y="3.296" width="11.333" height="9.349" rx="1" ry="1" style="fill: rgb(246, 246, 246);"></rect>
  <path d="M 7.274 6.235 C 6.616 5.809 5.902 5.688 5.136 5.873 C 4.37 6.057 3.781 6.476 3.373 7.134 C 2.956 7.801 2.835 8.514 3.011 9.272 C 3.195 10.038 3.614 10.631 4.273 11.048 C 4.939 11.457 5.657 11.573 6.423 11.397 C 7.183 11.23 7.769 10.809 8.186 10.134 C 8.603 9.475 8.72 8.764 8.536 7.998 C 8.368 7.238 7.949 6.652 7.274 6.235 Z M 5.473 7.31 C 5.83 7.219 6.173 7.272 6.499 7.473 C 6.815 7.672 7.02 7.956 7.111 8.322 C 7.185 8.688 7.128 9.035 6.935 9.359 C 6.745 9.676 6.461 9.882 6.087 9.973 C 5.72 10.047 5.373 9.99 5.049 9.797 C 4.723 9.579 4.522 9.295 4.448 8.946 C 4.357 8.58 4.414 8.235 4.624 7.909 C 4.817 7.585 5.098 7.384 5.473 7.31 Z" id="path6" style="fill: rgb(255, 0, 0); fill-rule: nonzero; stroke: none; stroke-width: 0.04998pt; stroke-linecap: butt; stroke-linejoin: miter; stroke-dasharray: none;"></path>
  <path d="M 9.662 5.06 C 9.444 4.952 9.232 4.926 9.025 4.984 C 8.79 5.034 8.616 5.164 8.5 5.371 C 8.366 5.572 8.332 5.796 8.4 6.046 C 8.4 6.046 9.274 9.848 9.274 9.848 C 9.34 10.121 9.482 10.322 9.7 10.447 C 9.907 10.555 10.119 10.585 10.337 10.534 C 10.587 10.468 10.767 10.335 10.875 10.134 C 10.991 9.935 11.025 9.71 10.974 9.458 C 10.974 9.458 10.712 8.341 10.712 8.341 C 10.712 8.341 10.932 8.08 10.932 8.08 C 10.932 8.08 12.674 9.596 12.674 9.596 C 12.909 9.806 13.167 9.875 13.451 9.81 C 13.65 9.759 13.821 9.638 13.963 9.448 C 14.13 9.221 14.175 8.984 14.101 8.734 C 14.067 8.55 13.971 8.389 13.813 8.248 C 13.813 8.248 12.062 6.734 12.062 6.734 C 12.062 6.734 12.811 5.835 12.811 5.835 C 13.013 5.608 13.078 5.346 13.013 5.047 C 12.962 4.806 12.824 4.609 12.6 4.459 C 12.382 4.325 12.166 4.289 11.95 4.346 C 11.783 4.38 11.632 4.476 11.499 4.634 C 11.499 4.634 10.21 6.171 10.21 6.171 C 10.21 6.171 10.087 5.659 10.087 5.659 C 10.028 5.392 9.886 5.193 9.662 5.06 Z" id="path10" style="fill: rgb(255, 0, 0); fill-rule: nonzero; stroke: none; stroke-width: 0.04998pt; stroke-linecap: butt; stroke-linejoin: miter; stroke-dasharray: none;"></path>
  <path d="M 14.2 4.071 C 14.192 3.779 14.075 3.521 13.851 3.297 C 13.616 3.064 13.341 2.947 13.025 2.947 C 13.025 2.947 4.048 2.947 4.048 2.947 C 3.724 2.947 3.449 3.055 3.223 3.271 C 2.99 3.498 2.873 3.764 2.873 4.071 C 2.873 4.071 2.873 5.873 2.873 5.873 C 2.873 5.998 2.941 6.059 3.074 6.059 C 3.199 6.059 3.377 5.976 3.61 5.809 C 4.67 5.043 6.004 4.471 7.611 4.097 C 9.878 3.563 11.855 3.597 13.538 4.196 C 13.538 4.196 13.887 4.359 13.887 4.359 C 13.961 4.393 14.024 4.397 14.075 4.372 C 14.166 4.338 14.209 4.239 14.2 4.071 Z" id="path14" style="fill: rgb(255, 0, 0); fill-rule: nonzero; stroke: none; stroke-width: 0.04998pt; stroke-linecap: butt; stroke-linejoin: miter; stroke-dasharray: none;"></path>
  <path d="M 3.074 11.596 C 2.941 11.596 2.873 11.664 2.873 11.797 C 2.873 11.797 2.873 13.247 2.873 13.247 C 2.873 13.554 2.99 13.817 3.223 14.035 C 3.449 14.259 3.724 14.371 4.048 14.371 C 4.048 14.371 13.025 14.371 13.025 14.371 C 13.349 14.371 13.629 14.259 13.861 14.035 C 14.088 13.817 14.2 13.554 14.2 13.247 C 14.2 13.247 14.2 10.223 14.2 10.223 C 14.2 10.089 14.132 10.021 13.999 10.021 C 13.999 10.021 13.813 10.121 13.813 10.121 C 13.813 10.121 13.612 10.259 13.612 10.259 C 12.471 11.044 11.146 11.611 9.636 11.96 C 8.445 12.242 7.295 12.363 6.186 12.322 C 5.128 12.28 4.237 12.096 3.51 11.772 C 3.235 11.656 3.089 11.596 3.074 11.596 Z" id="path18" style="fill: rgb(255, 0, 0); fill-rule: nonzero; stroke: none; stroke-width: 0.04998pt; stroke-linecap: butt; stroke-linejoin: miter; stroke-dasharray: none;"></path>
</g>

</svg>