<svg xmlns="http://www.w3.org/2000/svg" viewBox="0 0 17 17" height="17" width="17">
	<title>familymart_logo.svg</title>
	<rect fill="none" x="0" y="0" width="17" height="17"></rect>

   <g>
    <rect x="2.14" y="2.923" width="12.572" height="10.905" style="fill: rgb(238, 238, 238);"></rect>
    <path id="path758" fill="#00A041" d="M 14.484 6.613 L 2.331 6.613 L 2.331 3.092 L 14.484 3.092 L 14.484 6.613 Z" style=""></path>
    <path id="path760" fill="#008CD6" d="M 14.484 11.201 L 2.331 11.201 L 2.331 7.619 L 14.484 7.619 L 14.484 11.201 Z" style=""></path>
    <path id="path764" fill="#008CD6" d="M 2.331 11.78 L 2.331 13.633 L 2.708 13.633 L 2.708 12.823 L 3.492 12.823 L 3.492 12.465 L 2.708 12.465 L 2.708 12.138 L 3.505 12.138 L 3.505 11.78 L 2.331 11.78 Z"></path>
    <path fill="#008CD6" d="M 4.602 13.368 L 4.602 12.764 C 4.602 12.566 4.499 12.314 4.063 12.314 C 3.892 12.314 3.753 12.352 3.659 12.39 L 3.659 12.718 C 3.766 12.651 3.885 12.615 4.015 12.615 C 4.133 12.615 4.25 12.656 4.25 12.794 L 4.25 12.802 C 4.192 12.782 4.119 12.768 4.042 12.768 C 3.746 12.768 3.527 12.924 3.527 13.228 C 3.527 13.528 3.772 13.641 3.969 13.641 C 4.091 13.641 4.197 13.602 4.266 13.547 C 4.272 13.585 4.282 13.617 4.294 13.633 L 4.681 13.633 C 4.635 13.596 4.602 13.52 4.602 13.368 M 3.881 13.189 C 3.881 13.087 3.969 13.018 4.094 13.018 C 4.158 13.018 4.21 13.032 4.25 13.053 L 4.25 13.275 C 4.214 13.307 4.153 13.344 4.063 13.344 C 3.947 13.344 3.881 13.278 3.881 13.189"></path>
    <path fill="#008CD6" d="M 12.252 13.368 L 12.252 12.764 C 12.252 12.566 12.149 12.314 11.714 12.314 C 11.542 12.314 11.403 12.352 11.309 12.39 L 11.309 12.718 C 11.417 12.651 11.536 12.615 11.666 12.615 C 11.783 12.615 11.9 12.656 11.9 12.794 L 11.9 12.802 C 11.842 12.782 11.769 12.768 11.693 12.768 C 11.396 12.768 11.178 12.924 11.178 13.228 C 11.178 13.528 11.423 13.641 11.619 13.641 C 11.742 13.641 11.847 13.602 11.916 13.547 C 11.923 13.585 11.933 13.617 11.944 13.633 L 12.332 13.633 C 12.286 13.596 12.252 13.52 12.252 13.368 M 11.531 13.189 C 11.531 13.087 11.619 13.018 11.745 13.018 C 11.809 13.018 11.86 13.032 11.9 13.053 L 11.9 13.275 C 11.864 13.307 11.804 13.344 11.713 13.344 C 11.597 13.344 11.531 13.278 11.531 13.189"></path>
    <path id="path784" fill="#008CD6" d="M 6.165 12.327 C 6.013 12.327 5.901 12.363 5.796 12.475 C 5.721 12.382 5.605 12.327 5.464 12.327 C 5.348 12.327 5.24 12.36 5.142 12.446 L 5.142 12.34 L 4.813 12.34 L 4.813 13.633 L 5.167 13.633 L 5.167 12.761 C 5.209 12.709 5.27 12.664 5.353 12.664 C 5.46 12.664 5.52 12.737 5.52 12.869 L 5.52 13.633 L 5.881 13.633 L 5.881 12.752 C 5.922 12.701 5.982 12.664 6.065 12.664 C 6.18 12.664 6.233 12.746 6.233 12.869 L 6.233 13.633 L 6.593 13.633 L 6.593 12.737 C 6.593 12.494 6.438 12.327 6.165 12.327"></path>
    <path id="path786" fill="#008CD6" d="M 7.424 13.633 L 7.778 13.633 L 7.778 11.78 L 7.424 11.78 L 7.424 13.633 Z"></path>
    <path id="path790" fill="#008CD6" d="M 10.166 12.356 L 9.698 11.78 L 9.311 11.78 L 9.311 13.633 L 9.698 13.633 L 9.698 12.356 L 10.166 12.976 L 10.635 12.356 L 10.635 13.633 L 11.022 13.633 L 11.022 11.78 L 10.635 11.78 L 10.166 12.356 Z"></path>
    <path id="path792" fill="#008CD6" d="M 6.827 13.633 L 7.181 13.633 L 7.181 12.34 L 6.827 12.34 L 6.827 13.633 Z"></path>
    <path id="path804" fill="#008CD6" d="M 7.004 11.752 C 6.877 11.752 6.774 11.854 6.774 11.982 C 6.774 12.108 6.877 12.211 7.004 12.211 C 7.131 12.211 7.233 12.108 7.233 11.982 C 7.233 11.854 7.131 11.752 7.004 11.752"></path>
    <path id="path808" fill="#008CD6" d="M 12.786 12.475 L 12.786 12.34 L 12.448 12.34 L 12.448 13.633 L 12.802 13.633 L 12.802 12.82 C 12.853 12.755 12.936 12.696 13.056 12.696 C 13.149 12.696 13.216 12.732 13.255 12.76 L 13.255 12.371 C 13.211 12.34 13.141 12.324 13.083 12.324 C 12.982 12.324 12.872 12.362 12.786 12.475"></path>
    <path id="path812" fill="#008CD6" d="M 14.015 13.303 C 13.903 13.303 13.86 13.216 13.86 13.12 L 13.86 12.678 L 14.162 12.678 L 14.162 12.34 L 13.86 12.34 L 13.86 11.851 L 13.511 11.999 L 13.511 12.34 L 13.32 12.34 L 13.32 12.678 L 13.511 12.678 L 13.511 13.172 C 13.511 13.44 13.618 13.648 13.934 13.648 C 14.028 13.648 14.111 13.633 14.166 13.611 L 14.166 13.253 C 14.14 13.283 14.091 13.303 14.015 13.303"></path>
    <path id="path816" fill="#008CD6" d="M 8.205 13.968 L 8.603 13.968 L 9.199 12.34 L 8.812 12.34 L 8.566 13.038 L 8.299 12.34 L 7.895 12.34 L 8.382 13.513 L 8.205 13.968 Z"></path>
  </g>

</svg>