<svg xmlns="http://www.w3.org/2000/svg" viewBox="0 0 17 17" height="17" width="17">
	<title>logo_Hi-Life.svg</title>
	<rect fill="none" x="0" y="0" width="17" height="17"></rect>


<g>
  <rect fill="none" x="0" y="0" width="17" height="17"></rect>
  <path style=" stroke:none;fill-rule:nonzero;fill:rgb(83.921569%,9.803922%,9.411765%);fill-opacity:1;" d="M 6.217 6.714 C 6.127 6.606 5.985 6.547 5.835 6.585 C 5.704 6.606 5.596 6.72 5.574 6.833 L 5.566 7.525 L 5.555 7.542 L 5.239 7.546 L 5.233 7.165 C 5.215 6.973 5.28 6.714 5.031 6.623 C 4.935 6.579 4.804 6.579 4.715 6.623 C 4.471 6.736 4.548 7.004 4.535 7.213 L 4.535 8.534 C 4.542 8.685 4.524 8.851 4.69 8.949 C 4.786 9.006 4.928 9.013 5.031 8.969 C 5.138 8.927 5.215 8.831 5.239 8.733 L 5.239 8.165 L 5.555 8.159 L 5.566 8.165 L 5.574 8.679 C 5.584 8.767 5.608 8.856 5.698 8.915 C 5.788 8.987 5.918 9.006 6.037 8.969 C 6.157 8.927 6.263 8.82 6.27 8.707 L 6.27 7.069 C 6.263 6.95 6.294 6.821 6.217 6.714 M 7.591 5.63 C 7.527 5.527 7.407 5.446 7.289 5.436 C 7.116 5.404 6.961 5.478 6.854 5.596 C 6.8 5.543 6.735 5.501 6.675 5.468 C 6.52 5.414 6.323 5.42 6.198 5.521 C 6.073 5.618 6.013 5.785 6.062 5.936 C 6.181 6.311 6.485 6.676 6.867 6.907 C 7.057 6.784 7.242 6.59 7.372 6.412 C 7.503 6.176 7.736 5.92 7.591 5.63 M 7.182 7.229 C 7.152 7.17 7.104 7.107 7.034 7.079 C 6.943 7.025 6.8 7.036 6.704 7.069 C 6.592 7.123 6.514 7.219 6.508 7.338 L 6.508 8.578 C 6.496 8.701 6.52 8.808 6.609 8.884 C 6.699 8.969 6.831 8.987 6.95 8.969 C 7.08 8.943 7.205 8.831 7.205 8.701 L 7.205 7.713 C 7.188 7.542 7.236 7.402 7.182 7.229 M 8.003 8.122 L 7.616 8.116 C 7.568 8.122 7.503 8.105 7.467 8.127 C 7.265 8.207 7.372 8.427 7.349 8.572 C 7.45 8.776 7.706 8.669 7.903 8.69 C 7.993 8.701 8.057 8.664 8.106 8.604 C 8.164 8.492 8.13 8.363 8.141 8.245 C 8.123 8.185 8.07 8.137 8.003 8.122 M 8.886 6.698 C 8.797 6.579 8.599 6.526 8.456 6.606 C 8.344 6.667 8.247 6.763 8.26 6.886 L 8.267 8.514 L 8.284 8.745 C 8.295 8.842 8.416 8.949 8.535 8.969 C 8.743 8.991 8.981 8.987 9.201 8.965 C 9.297 8.943 9.392 8.878 9.434 8.798 C 9.487 8.679 9.469 8.534 9.373 8.433 C 9.273 8.325 9.106 8.341 8.963 8.341 C 8.945 7.847 8.957 7.365 8.945 6.874 C 8.945 6.811 8.921 6.758 8.886 6.698 M 10.304 6.327 C 10.25 6.235 10.143 6.156 10.047 6.128 C 9.893 6.086 9.719 6.118 9.607 6.235 C 9.493 6.349 9.458 6.526 9.53 6.671 C 9.588 6.805 9.749 6.913 9.904 6.913 C 10.06 6.918 10.191 6.833 10.28 6.714 C 10.369 6.612 10.369 6.44 10.304 6.327 M 12.037 7.654 L 12.586 7.649 C 12.562 7.584 12.484 7.542 12.412 7.515 C 12.305 7.488 12.194 7.504 12.109 7.568 C 12.086 7.589 12.037 7.627 12.037 7.654 M 13.253 7.515 C 13.158 7.192 12.795 6.934 12.425 6.896 C 12.007 6.865 11.603 7.063 11.412 7.39 C 11.364 7.477 11.334 7.568 11.31 7.664 C 11.269 7.654 11.222 7.671 11.192 7.654 L 11.192 6.821 L 11.209 6.805 L 11.507 6.805 C 11.632 6.789 11.745 6.741 11.811 6.633 C 11.871 6.526 11.86 6.391 11.775 6.3 C 11.644 6.118 11.382 6.192 11.169 6.176 C 11 6.192 10.81 6.15 10.667 6.22 C 10.555 6.279 10.476 6.376 10.476 6.494 L 10.476 7.654 C 10.417 7.687 10.334 7.664 10.257 7.671 C 10.238 7.477 10.32 7.278 10.178 7.127 C 10.083 7.025 9.952 6.994 9.828 7.025 C 9.719 7.063 9.613 7.149 9.588 7.256 C 9.577 7.718 9.577 8.185 9.583 8.642 C 9.588 8.754 9.637 8.851 9.732 8.922 C 9.828 8.987 9.976 8.987 10.071 8.927 C 10.32 8.808 10.233 8.55 10.257 8.325 L 10.25 8.315 L 10.476 8.315 L 10.476 8.357 L 10.488 9.883 C 10.488 9.989 10.499 10.092 10.589 10.162 C 10.673 10.247 10.804 10.269 10.923 10.247 C 11.054 10.221 11.174 10.114 11.192 9.985 L 11.192 8.492 L 11.198 8.304 L 11.31 8.304 C 11.34 8.341 11.34 8.401 11.364 8.449 C 11.478 8.767 11.86 9.018 12.223 9.034 C 12.484 9.013 12.817 9.126 12.998 8.927 C 13.068 8.842 13.099 8.713 13.063 8.604 C 13.015 8.492 12.895 8.421 12.77 8.405 L 12.169 8.405 C 12.121 8.379 12.073 8.336 12.05 8.298 L 12.52 8.298 C 12.753 8.272 13.038 8.368 13.182 8.181 C 13.289 7.987 13.337 7.729 13.253 7.515 M 14.299 5.031 C 14.883 6.019 14.508 7.3 13.876 8.167 C 12.75 10.046 10.857 11.872 8.82 13.097 L 8.7 13.076 C 6.333 11.638 4.293 9.527 3.145 7.313 C 2.629 6.279 2.933 4.995 3.839 4.206 C 4.732 3.399 6.201 3.143 7.366 3.616 C 7.896 3.797 8.344 4.179 8.724 4.61 L 8.758 4.596 C 9.577 3.546 10.977 3.173 12.326 3.477 C 13.139 3.681 13.962 4.307 14.299 5.031"></path>
</g>


</svg>